# xmcd
#
# Track frame offsets: 
#        150
#        18009
#        31985
#        46988
#        64062
#
# Disc length: 1084 seconds
#
# Revision: 0
# Processed by: cddbd v1.5.2PL0 Copyright (c) Steve Scherf et al.
# Submitted via: ExactAudioCopy v1.0b3
#
DISCID=33043a05
DTITLE=Charlotte Henry - Charlotte Henry
DYEAR=2003
DGENRE=Country
TTITLE0=I Never Saw It Coming
TTITLE1=Wishful Thinking
TTITLE2=When I'm With You
TTITLE3=Come With Me
TTITLE4=Valentine
EXTD=
EXTT0=
EXTT1=
EXTT2=
EXTT3=
EXTT4=
PLAYORDER=
